{"asset":{"version":"2.0","generator":"Blockbench 4.11.1 glTF exporter"},"scenes":[{"nodes":[4],"name":"blockbench_export"}],"scene":0,"nodes":[{"rotation":[0.02181488503456112,0,0,0.9997620270799091],"translation":[0.21875,0.125,0],"name":"right antenna","mesh":0},{"rotation":[0.02181488503456112,0,0,0.9997620270799091],"translation":[-0.21875,0.125,0],"name":"left antenna","mesh":1},{"translation":[0,0.140625,-0.046875],"name":"head","mesh":2},{"translation":[0,1.125,0],"name":"head","children":[0,1,2]},{"children":[3]}],"bufferViews":[{"buffer":0,"byteOffset":0,"byteLength":216,"target":34962,"byteStride":12},{"buffer":0,"byteOffset":216,"byteLength":216,"target":34962,"byteStride":12},{"buffer":0,"byteOffset":432,"byteLength":144,"target":34962,"byteStride":8},{"buffer":0,"byteOffset":576,"byteLength":48,"target":34963},{"buffer":0,"byteOffset":624,"byteLength":216,"target":34962,"byteStride":12},{"buffer":0,"byteOffset":840,"byteLength":216,"target":34962,"byteStride":12},{"buffer":0,"byteOffset":1056,"byteLength":144,"target":34962,"byteStride":8},{"buffer":0,"byteOffset":1200,"byteLength":48,"target":34963},{"buffer":0,"byteOffset":1248,"byteLength":1248,"target":34962,"byteStride":12},{"buffer":0,"byteOffset":2496,"byteLength":1248,"target":34962,"byteStride":12},{"buffer":0,"byteOffset":3744,"byteLength":832,"target":34962,"byteStride":8},{"buffer":0,"byteOffset":4576,"byteLength":276,"target":34963}],"buffers":[{"byteLength":4852,"uri":"data:application/octet-stream;base64,"}],"accessors":[{"bufferView":0,"componentType":5126,"count":18,"max":[0,0.25,0.0625],"min":[-0.125,-0.04683038592338562,-0.0625],"type":"VEC3"},{"bufferView":1,"componentType":5126,"count":18,"max":[1,0.4472135901451111,0.9922778606414795],"min":[-0.8944271802902222,-1,-0.9938016533851624],"type":"VEC3"},{"bufferView":2,"componentType":5126,"count":18,"max":[0.546875,0.25],"min":[0.453125,0.171875],"type":"VEC2"},{"bufferView":3,"componentType":5123,"count":24,"max":[17],"min":[0],"type":"SCALAR"},{"bufferView":4,"componentType":5126,"count":18,"max":[0.125,0.25,0.0625],"min":[0,-0.04683038592338562,-0.0625],"type":"VEC3"},{"bufferView":5,"componentType":5126,"count":18,"max":[0.8944271802902222,0.4472135901451111,0.9938016533851624],"min":[-1,-1,-0.9922778606414795],"type":"VEC3"},{"bufferView":6,"componentType":5126,"count":18,"max":[0.546875,0.390625],"min":[0.453125,0.3125],"type":"VEC2"},{"bufferView":7,"componentType":5123,"count":24,"max":[17],"min":[0],"type":"SCALAR"},{"bufferView":8,"componentType":5126,"count":104,"max":[0.1875,0.21875,0.296875],"min":[-0.1875,-0.15625,-0.140625],"type":"VEC3"},{"bufferView":9,"componentType":5126,"count":104,"max":[0.9669875502586365,0.9805806875228882,1],"min":[-0.9669875502586365,-1,-0.9486833214759827],"type":"VEC3"},{"bufferView":10,"componentType":5126,"count":104,"max":[0.578125,0.390625],"min":[0.328125,0.15625],"type":"VEC2"},{"bufferView":11,"componentType":5123,"count":138,"max":[103],"min":[0],"type":"SCALAR"}],"materials":[{"pbrMetallicRoughness":{"metallicFactor":0,"roughnessFactor":1,"baseColorTexture":{"index":0}},"alphaMode":"MASK","alphaCutoff":0.05,"doubleSided":true}],"textures":[{"sampler":0,"source":0,"name":"new_uv_texture.png"}],"samplers":[{"magFilter":9728,"minFilter":9728,"wrapS":33071,"wrapT":33071}],"images":[{"mimeType":"image/png"}],"meshes":[{"primitives":[{"mode":4,"attributes":{"POSITION":0,"NORMAL":1,"TEXCOORD_0":2},"indices":3,"material":0}]},{"primitives":[{"mode":4,"attributes":{"POSITION":4,"NORMAL":5,"TEXCOORD_0":6},"indices":7,"material":0}]},{"primitives":[{"mode":4,"attributes":{"POSITION":8,"NORMAL":9,"TEXCOORD_0":10},"indices":11,"material":0}]}]}