{"asset":{"version":"2.0","generator":"Blockbench 4.11.1 glTF exporter"},"scenes":[{"nodes":[4],"name":"blockbench_export"}],"scene":0,"nodes":[{"translation":[0,0.328125,-0.015625],"name":"chest","mesh":0},{"translation":[0.0625,0.03125,0],"name":"right waist","mesh":1},{"translation":[-0.0625,0.03125,0],"name":"left waist","mesh":2},{"translation":[0,0.59375,0],"name":"torso","children":[0,1,2]},{"children":[3]}],"bufferViews":[{"buffer":0,"byteOffset":0,"byteLength":1272,"target":34962,"byteStride":12},{"buffer":0,"byteOffset":1272,"byteLength":1272,"target":34962,"byteStride":12},{"buffer":0,"byteOffset":2544,"byteLength":848,"target":34962,"byteStride":8},{"buffer":0,"byteOffset":3392,"byteLength":276,"target":34963},{"buffer":0,"byteOffset":3668,"byteLength":288,"target":34962,"byteStride":12},{"buffer":0,"byteOffset":3956,"byteLength":288,"target":34962,"byteStride":12},{"buffer":0,"byteOffset":4244,"byteLength":192,"target":34962,"byteStride":8},{"buffer":0,"byteOffset":4436,"byteLength":72,"target":34963},{"buffer":0,"byteOffset":4508,"byteLength":288,"target":34962,"byteStride":12},{"buffer":0,"byteOffset":4796,"byteLength":288,"target":34962,"byteStride":12},{"buffer":0,"byteOffset":5084,"byteLength":192,"target":34962,"byteStride":8},{"buffer":0,"byteOffset":5276,"byteLength":72,"target":34963}],"buffers":[{"byteLength":5348,"uri":"data:application/octet-stream;base64,"}],"accessors":[{"bufferView":0,"componentType":5126,"count":106,"max":[0.28125,0.2109375,0.2213541716337204],"min":[-0.28125,-0.1953125,-0.3255208432674408],"type":"VEC3"},{"bufferView":1,"componentType":5126,"count":106,"max":[0.9805806875228882,1,0.986393928527832],"min":[-0.9805806875228882,-1,-0.8613722324371338],"type":"VEC3"},{"bufferView":2,"componentType":5126,"count":106,"max":[0.65625,0.1875],"min":[0.0625,0],"type":"VEC2"},{"bufferView":3,"componentType":5123,"count":138,"max":[105],"min":[0],"type":"SCALAR"},{"bufferView":4,"componentType":5126,"count":24,"max":[0.1875,0.109375,0.25],"min":[-0.0625,-0.28125,-0.25],"type":"VEC3"},{"bufferView":5,"componentType":5126,"count":24,"max":[0.9670745134353638,1,0.9372106194496155],"min":[-1,-0.9397323727607727,-0.916763424873352],"type":"VEC3"},{"bufferView":6,"componentType":5126,"count":24,"max":[1,0.21875],"min":[0,0],"type":"VEC2"},{"bufferView":7,"componentType":5123,"count":36,"max":[23],"min":[0],"type":"SCALAR"},{"bufferView":8,"componentType":5126,"count":24,"max":[0.0625,0.109375,0.25],"min":[-0.1875,-0.28125,-0.25],"type":"VEC3"},{"bufferView":9,"componentType":5126,"count":24,"max":[1,1,0.9372106194496155],"min":[-0.9670745134353638,-0.9397323727607727,-0.916763424873352],"type":"VEC3"},{"bufferView":10,"componentType":5126,"count":24,"max":[0.9375,0.21875],"min":[0,0],"type":"VEC2"},{"bufferView":11,"componentType":5123,"count":36,"max":[23],"min":[0],"type":"SCALAR"}],"materials":[{"pbrMetallicRoughness":{"metallicFactor":0,"roughnessFactor":1,"baseColorTexture":{"index":0}},"alphaMode":"MASK","alphaCutoff":0.05,"doubleSided":true}],"textures":[{"sampler":0,"source":0,"name":"new_uv_texture.png"}],"samplers":[{"magFilter":9728,"minFilter":9728,"wrapS":33071,"wrapT":33071}],"images":[{"mimeType":"image/png"}],"meshes":[{"primitives":[{"mode":4,"attributes":{"POSITION":0,"NORMAL":1,"TEXCOORD_0":2},"indices":3,"material":0}]},{"primitives":[{"mode":4,"attributes":{"POSITION":4,"NORMAL":5,"TEXCOORD_0":6},"indices":7,"material":0}]},{"primitives":[{"mode":4,"attributes":{"POSITION":8,"NORMAL":9,"TEXCOORD_0":10},"indices":11,"material":0}]}]}