{"asset":{"version":"2.0","generator":"Blockbench 4.11.1 glTF exporter"},"scenes":[{"nodes":[3],"name":"blockbench_export"}],"scene":0,"nodes":[{"translation":[0,0.8125,0],"name":"cube","mesh":0},{"rotation":[0.2558067823553508,0.03937242955143623,-0.1469399075033863,0.9546839086708834],"translation":[0,0.3125,0],"name":"plane","mesh":1},{"rotation":[0.17364817766693033,0,0,0.984807753012208],"name":"bone","children":[1]},{"children":[0,2]}],"bufferViews":[{"buffer":0,"byteOffset":0,"byteLength":288,"target":34962,"byteStride":12},{"buffer":0,"byteOffset":288,"byteLength":288,"target":34962,"byteStride":12},{"buffer":0,"byteOffset":576,"byteLength":192,"target":34962,"byteStride":8},{"buffer":0,"byteOffset":768,"byteLength":60,"target":34963},{"buffer":0,"byteOffset":828,"byteLength":36,"target":34962,"byteStride":12},{"buffer":0,"byteOffset":864,"byteLength":36,"target":34962,"byteStride":12},{"buffer":0,"byteOffset":900,"byteLength":24,"target":34962,"byteStride":8},{"buffer":0,"byteOffset":924,"byteLength":8,"target":34963}],"buffers":[{"byteLength":932,"uri":"data:application/octet-stream;base64,"}],"accessors":[{"bufferView":0,"componentType":5126,"count":24,"max":[0.0625,0.125,0.0625],"min":[-0.0625,0,-0.0625],"type":"VEC3"},{"bufferView":1,"componentType":5126,"count":24,"max":[1,1,1],"min":[-1,-1,-1],"type":"VEC3"},{"bufferView":2,"componentType":5126,"count":24,"max":[1,1],"min":[0,0],"type":"VEC2"},{"bufferView":3,"componentType":5123,"count":30,"max":[23],"min":[4],"type":"SCALAR"},{"bufferView":4,"componentType":5126,"count":3,"max":[0.375,0.2581072151660919,0.4375],"min":[-0.4563809037208557,0,-0.4375],"type":"VEC3"},{"bufferView":5,"componentType":5126,"count":3,"max":[0.2825627028942108,0.9562250971794128,0.07610468566417694],"min":[0.2825627028942108,0.9562250971794128,0.07610468566417694],"type":"VEC3"},{"bufferView":6,"componentType":5126,"count":3,"max":[0.75,0.875],"min":[0,0],"type":"VEC2"},{"bufferView":7,"componentType":5123,"count":3,"max":[2],"min":[0],"type":"SCALAR"}],"materials":[{"pbrMetallicRoughness":{"metallicFactor":0,"roughnessFactor":1,"baseColorTexture":{"index":0}},"alphaMode":"MASK","alphaCutoff":0.05,"doubleSided":true},{"pbrMetallicRoughness":{"metallicFactor":0,"roughnessFactor":1,"baseColorTexture":{"index":1}},"alphaMode":"MASK","alphaCutoff":0.05,"doubleSided":true}],"textures":[{"sampler":0,"source":0,"name":"texture b"},{"sampler":1,"source":1,"name":"texture a"}],"samplers":[{"magFilter":9728,"minFilter":9728,"wrapS":33071,"wrapT":33071},{"magFilter":9728,"minFilter":9728,"wrapS":33071,"wrapT":33071}],"images":[{"mimeType":"image/png"},{"mimeType":"image/png"}],"meshes":[{"primitives":[{"mode":4,"attributes":{"POSITION":0,"NORMAL":1,"TEXCOORD_0":2},"indices":3,"material":0}]},{"primitives":[{"mode":4,"attributes":{"POSITION":4,"NORMAL":5,"TEXCOORD_0":6},"indices":7,"material":1}]}]}