{"asset":{"version":"2.0","generator":"Blockbench 4.11.1 glTF exporter"},"scenes":[{"nodes":[3],"name":"blockbench_export"}],"scene":0,"nodes":[{"translation":[0,1.0375000000000005,0],"name":"head","mesh":0},{"translation":[0,-0.8125,0.03125],"name":"head","children":[0]},{"rotation":[0,-0.7071067811865475,0,0.7071067811865476],"translation":[0.0625,0.9375,0],"name":"all","children":[1]},{"children":[2]}],"bufferViews":[{"buffer":0,"byteOffset":0,"byteLength":1152,"target":34962,"byteStride":12},{"buffer":0,"byteOffset":1152,"byteLength":1152,"target":34962,"byteStride":12},{"buffer":0,"byteOffset":2304,"byteLength":768,"target":34962,"byteStride":8},{"buffer":0,"byteOffset":3072,"byteLength":264,"target":34963}],"buffers":[{"byteLength":3336,"uri":"data:application/octet-stream;base64,"}],"accessors":[{"bufferView":0,"componentType":5126,"count":96,"max":[0.3125,0.3375000059604645,0.15625],"min":[-0.1875,-0.015625,-0.15625],"type":"VEC3"},{"bufferView":1,"componentType":5126,"count":96,"max":[1,0.9983713626861572,1],"min":[-1,-0.9970544576644897,-1],"type":"VEC3"},{"bufferView":2,"componentType":5126,"count":96,"max":[0.578125,0.375],"min":[0.328125,0.15625],"type":"VEC2"},{"bufferView":3,"componentType":5123,"count":132,"max":[95],"min":[0],"type":"SCALAR"}],"materials":[{"pbrMetallicRoughness":{"metallicFactor":0,"roughnessFactor":1,"baseColorTexture":{"index":0}},"alphaMode":"MASK","alphaCutoff":0.05,"doubleSided":true}],"textures":[{"sampler":0,"source":0,"name":"new_uv_texture.png"}],"samplers":[{"magFilter":9728,"minFilter":9728,"wrapS":33071,"wrapT":33071}],"images":[{"mimeType":"image/png"}],"meshes":[{"primitives":[{"mode":4,"attributes":{"POSITION":0,"NORMAL":1,"TEXCOORD_0":2},"indices":3,"material":0}]}]}