{"asset":{"version":"2.0","generator":"Blockbench 4.11.1 glTF exporter"},"scenes":[{"nodes":[6],"name":"blockbench_export"}],"scene":0,"nodes":[{"name":"head","mesh":0},{"rotation":[0.21643961393810288,0,0,0.9762960071199334],"translation":[-0.078125,0.078125,0],"name":"upper left antenna","mesh":1},{"rotation":[0.21643961393810288,0,0,0.9762960071199334],"translation":[-0.109375,0.0625,-0.015625],"name":"upper right antenna","mesh":2},{"rotation":[0.21643961393810288,0,0,0.9762960071199334],"translation":[0.078125,0.078125,0],"name":"upper right antenna","mesh":3},{"rotation":[0.21643961393810288,0,0,0.9762960071199334],"translation":[0.109375,0.0625,-0.015625],"name":"lower right antenna","mesh":4},{"translation":[0,0.8125,0],"name":"head","children":[0,1,2,3,4]},{"children":[5]}],"bufferViews":[{"buffer":0,"byteOffset":0,"byteLength":1152,"target":34962,"byteStride":12},{"buffer":0,"byteOffset":1152,"byteLength":1152,"target":34962,"byteStride":12},{"buffer":0,"byteOffset":2304,"byteLength":768,"target":34962,"byteStride":8},{"buffer":0,"byteOffset":3072,"byteLength":264,"target":34963},{"buffer":0,"byteOffset":3336,"byteLength":192,"target":34962,"byteStride":12},{"buffer":0,"byteOffset":3528,"byteLength":192,"target":34962,"byteStride":12},{"buffer":0,"byteOffset":3720,"byteLength":128,"target":34962,"byteStride":8},{"buffer":0,"byteOffset":3848,"byteLength":36,"target":34963},{"buffer":0,"byteOffset":3884,"byteLength":192,"target":34962,"byteStride":12},{"buffer":0,"byteOffset":4076,"byteLength":192,"target":34962,"byteStride":12},{"buffer":0,"byteOffset":4268,"byteLength":128,"target":34962,"byteStride":8},{"buffer":0,"byteOffset":4396,"byteLength":36,"target":34963},{"buffer":0,"byteOffset":4432,"byteLength":192,"target":34962,"byteStride":12},{"buffer":0,"byteOffset":4624,"byteLength":192,"target":34962,"byteStride":12},{"buffer":0,"byteOffset":4816,"byteLength":128,"target":34962,"byteStride":8},{"buffer":0,"byteOffset":4944,"byteLength":36,"target":34963},{"buffer":0,"byteOffset":4980,"byteLength":192,"target":34962,"byteStride":12},{"buffer":0,"byteOffset":5172,"byteLength":192,"target":34962,"byteStride":12},{"buffer":0,"byteOffset":5364,"byteLength":128,"target":34962,"byteStride":8},{"buffer":0,"byteOffset":5492,"byteLength":36,"target":34963}],"buffers":[{"byteLength":5528,"uri":"data:application/octet-stream;base64,"}],"accessors":[{"bufferView":0,"componentType":5126,"count":96,"max":[0.09375,0.15625,0.078125],"min":[-0.09375,0,-0.078125],"type":"VEC3"},{"bufferView":1,"componentType":5126,"count":96,"max":[0.9701424837112427,1,1],"min":[-0.9701424837112427,-1,-1],"type":"VEC3"},{"bufferView":2,"componentType":5126,"count":96,"max":[0.08838749676942825,0.08838748931884766],"min":[0,0],"type":"VEC2"},{"bufferView":3,"componentType":5123,"count":132,"max":[95],"min":[0],"type":"SCALAR"},{"bufferView":4,"componentType":5126,"count":16,"max":[0,0.1875,0.015625],"min":[-0.03125,-0.015625,-0.03125],"type":"VEC3"},{"bufferView":5,"componentType":5126,"count":16,"max":[1,0.16384638845920563,0.9956877827644348],"min":[-0.9883716702461243,-0.8944271802902222,-0.9830783009529114],"type":"VEC3"},{"bufferView":6,"componentType":5126,"count":16,"max":[0.0625,0.19008749723434448],"min":[0,0],"type":"VEC2"},{"bufferView":7,"componentType":5123,"count":18,"max":[15],"min":[0],"type":"SCALAR"},{"bufferView":8,"componentType":5126,"count":16,"max":[0.0625,0.020764470100402832,0.023182649165391922],"min":[0,-0.012872356921434402,-0.023692350834608078],"type":"VEC3"},{"bufferView":9,"componentType":5126,"count":16,"max":[0.7326218485832214,0.8944271802902222,0.9226849675178528],"min":[-0.4472135901451111,-0.9608932733535767,-0.8399749994277954],"type":"VEC3"},{"bufferView":10,"componentType":5126,"count":16,"max":[0.0625,0.19008749723434448],"min":[0,0],"type":"VEC2"},{"bufferView":11,"componentType":5123,"count":18,"max":[15],"min":[0],"type":"SCALAR"},{"bufferView":12,"componentType":5126,"count":16,"max":[0.03125,0.1875,0.015625],"min":[0,-0.015625,-0.03125],"type":"VEC3"},{"bufferView":13,"componentType":5126,"count":16,"max":[0.9883716702461243,0.16384638845920563,0.9956877827644348],"min":[-1,-0.8944271802902222,-0.9830783009529114],"type":"VEC3"},{"bufferView":14,"componentType":5126,"count":16,"max":[0.0625,0.19008749723434448],"min":[0,0],"type":"VEC2"},{"bufferView":15,"componentType":5123,"count":18,"max":[15],"min":[0],"type":"SCALAR"},{"bufferView":16,"componentType":5126,"count":16,"max":[0,0.020764470100402832,0.023182649165391922],"min":[-0.0625,-0.012872356921434402,-0.023692350834608078],"type":"VEC3"},{"bufferView":17,"componentType":5126,"count":16,"max":[0.4472135901451111,0.8944271802902222,0.9226849675178528],"min":[-0.7326218485832214,-0.9608932733535767,-0.8399749994277954],"type":"VEC3"},{"bufferView":18,"componentType":5126,"count":16,"max":[0.0625,0.19008749723434448],"min":[0,0],"type":"VEC2"},{"bufferView":19,"componentType":5123,"count":18,"max":[15],"min":[0],"type":"SCALAR"}],"materials":[{"pbrMetallicRoughness":{"metallicFactor":0,"roughnessFactor":1},"alphaMode":"MASK","alphaCutoff":0.05,"doubleSided":true}],"meshes":[{"primitives":[{"mode":4,"attributes":{"POSITION":0,"NORMAL":1,"TEXCOORD_0":2},"indices":3,"material":0}]},{"primitives":[{"mode":4,"attributes":{"POSITION":4,"NORMAL":5,"TEXCOORD_0":6},"indices":7,"material":0}]},{"primitives":[{"mode":4,"attributes":{"POSITION":8,"NORMAL":9,"TEXCOORD_0":10},"indices":11,"material":0}]},{"primitives":[{"mode":4,"attributes":{"POSITION":12,"NORMAL":13,"TEXCOORD_0":14},"indices":15,"material":0}]},{"primitives":[{"mode":4,"attributes":{"POSITION":16,"NORMAL":17,"TEXCOORD_0":18},"indices":19,"material":0}]}]}