{"asset":{"version":"2.0","generator":"Blockbench 4.11.1 glTF exporter"},"scenes":[{"nodes":[4],"name":"blockbench_export"}],"scene":0,"nodes":[{"translation":[0,-0.3125,0],"name":"lower leg","mesh":0},{"translation":[0,-0.109375,0],"name":"upper leg","mesh":1},{"translation":[0,-0.46875,-0.046875],"name":"foot","mesh":2},{"translation":[-0.09375,0.375,0],"name":"leftleg","children":[0,1,2]},{"children":[3]}],"bufferViews":[{"buffer":0,"byteOffset":0,"byteLength":624,"target":34962,"byteStride":12},{"buffer":0,"byteOffset":624,"byteLength":624,"target":34962,"byteStride":12},{"buffer":0,"byteOffset":1248,"byteLength":416,"target":34962,"byteStride":8},{"buffer":0,"byteOffset":1664,"byteLength":108,"target":34963},{"buffer":0,"byteOffset":1772,"byteLength":624,"target":34962,"byteStride":12},{"buffer":0,"byteOffset":2396,"byteLength":624,"target":34962,"byteStride":12},{"buffer":0,"byteOffset":3020,"byteLength":416,"target":34962,"byteStride":8},{"buffer":0,"byteOffset":3436,"byteLength":108,"target":34963},{"buffer":0,"byteOffset":3544,"byteLength":288,"target":34962,"byteStride":12},{"buffer":0,"byteOffset":3832,"byteLength":288,"target":34962,"byteStride":12},{"buffer":0,"byteOffset":4120,"byteLength":192,"target":34962,"byteStride":8},{"buffer":0,"byteOffset":4312,"byteLength":72,"target":34963}],"buffers":[{"byteLength":4384,"uri":"data:application/octet-stream;base64,"}],"accessors":[{"bufferView":0,"componentType":5126,"count":52,"max":[0.046875,0.15625,0.046875],"min":[-0.046875,-0.015625,-0.046875],"type":"VEC3"},{"bufferView":1,"componentType":5126,"count":52,"max":[0.9838699102401733,0.17888544499874115,0.9838699102401733],"min":[-0.9838699102401733,-1,-0.9838699102401733],"type":"VEC3"},{"bufferView":2,"componentType":5126,"count":52,"max":[0.84375,0.59375],"min":[0.71875,0.5],"type":"VEC2"},{"bufferView":3,"componentType":5123,"count":54,"max":[51],"min":[0],"type":"SCALAR"},{"bufferView":4,"componentType":5126,"count":52,"max":[0.046875,0.140625,0.046875],"min":[-0.046875,-0.046875,-0.046875],"type":"VEC3"},{"bufferView":5,"componentType":5126,"count":52,"max":[0.986393928527832,1,0.986393928527832],"min":[-0.986393928527832,-0.16439898312091827,-0.986393928527832],"type":"VEC3"},{"bufferView":6,"componentType":5126,"count":52,"max":[0.84375,0.5],"min":[0.71875,0.375],"type":"VEC2"},{"bufferView":7,"componentType":5123,"count":54,"max":[51],"min":[0],"type":"SCALAR"},{"bufferView":8,"componentType":5126,"count":24,"max":[0.046875,0.15625,0.09375],"min":[-0.046875,0.09375,-0.0625],"type":"VEC3"},{"bufferView":9,"componentType":5126,"count":24,"max":[0.9805806875228882,0.9805806875228882,1],"min":[-0.9805806875228882,-1,-1],"type":"VEC3"},{"bufferView":10,"componentType":5126,"count":24,"max":[0.84375,0.78125],"min":[0.71875,0.625],"type":"VEC2"},{"bufferView":11,"componentType":5123,"count":36,"max":[23],"min":[0],"type":"SCALAR"}],"materials":[{"pbrMetallicRoughness":{"metallicFactor":0,"roughnessFactor":1,"baseColorTexture":{"index":0}},"alphaMode":"MASK","alphaCutoff":0.05,"doubleSided":true}],"textures":[{"sampler":0,"source":0,"name":"uv_texture.png"}],"samplers":[{"magFilter":9728,"minFilter":9728,"wrapS":33071,"wrapT":33071}],"images":[{"mimeType":"image/png"}],"meshes":[{"primitives":[{"mode":4,"attributes":{"POSITION":0,"NORMAL":1,"TEXCOORD_0":2},"indices":3,"material":0}]},{"primitives":[{"mode":4,"attributes":{"POSITION":4,"NORMAL":5,"TEXCOORD_0":6},"indices":7,"material":0}]},{"primitives":[{"mode":4,"attributes":{"POSITION":8,"NORMAL":9,"TEXCOORD_0":10},"indices":11,"material":0}]}]}