{"asset":{"version":"2.0","generator":"Blockbench 4.11.1 glTF exporter"},"scenes":[{"nodes":[4],"name":"blockbench_export"}],"scene":0,"nodes":[{"translation":[0.0625,-0.0625,0],"name":"shoulder","mesh":0},{"translation":[0.0625,-0.171875,0],"name":"arm","mesh":1},{"translation":[0.0625,-0.390625,0],"name":"hand","mesh":2},{"translation":[0.1875,0.75,0],"name":"rightarm","children":[0,1,2]},{"children":[3]}],"bufferViews":[{"buffer":0,"byteOffset":0,"byteLength":288,"target":34962,"byteStride":12},{"buffer":0,"byteOffset":288,"byteLength":288,"target":34962,"byteStride":12},{"buffer":0,"byteOffset":576,"byteLength":192,"target":34962,"byteStride":8},{"buffer":0,"byteOffset":768,"byteLength":72,"target":34963},{"buffer":0,"byteOffset":840,"byteLength":1248,"target":34962,"byteStride":12},{"buffer":0,"byteOffset":2088,"byteLength":1248,"target":34962,"byteStride":12},{"buffer":0,"byteOffset":3336,"byteLength":832,"target":34962,"byteStride":8},{"buffer":0,"byteOffset":4168,"byteLength":216,"target":34963},{"buffer":0,"byteOffset":4384,"byteLength":288,"target":34962,"byteStride":12},{"buffer":0,"byteOffset":4672,"byteLength":288,"target":34962,"byteStride":12},{"buffer":0,"byteOffset":4960,"byteLength":192,"target":34962,"byteStride":8},{"buffer":0,"byteOffset":5152,"byteLength":48,"target":34963}],"buffers":[{"byteLength":5200,"uri":"data:application/octet-stream;base64,"}],"accessors":[{"bufferView":0,"componentType":5126,"count":24,"max":[0.0625,0.125,0.0625],"min":[-0.0625,0,-0.0625],"type":"VEC3"},{"bufferView":1,"componentType":5126,"count":24,"max":[0.9701424837112427,0.9922778606414795,1],"min":[-1,-0.986393928527832,-1],"type":"VEC3"},{"bufferView":2,"componentType":5126,"count":24,"max":[0.25,0.59375],"min":[0,0.40625],"type":"VEC2"},{"bufferView":3,"componentType":5123,"count":36,"max":[23],"min":[0],"type":"SCALAR"},{"bufferView":4,"componentType":5126,"count":104,"max":[0.046875,0.125,0.046875],"min":[-0.046875,-0.125,-0.046875],"type":"VEC3"},{"bufferView":5,"componentType":5126,"count":104,"max":[0.9701424837112427,1,0.9701424837112427],"min":[-0.9701424837112427,-1,-0.9701424837112427],"type":"VEC3"},{"bufferView":6,"componentType":5126,"count":104,"max":[0.125,0.8125],"min":[0,0.625],"type":"VEC2"},{"bufferView":7,"componentType":5123,"count":108,"max":[103],"min":[0],"type":"SCALAR"},{"bufferView":8,"componentType":5126,"count":24,"max":[0.0625,0.125,0.0625],"min":[-0.0625,0,-0.0625],"type":"VEC3"},{"bufferView":9,"componentType":5126,"count":24,"max":[0.5773502588272095,0.5773502588272095,0.5773502588272095],"min":[-0.5773502588272095,-0.5773502588272095,-0.5773502588272095],"type":"VEC3"},{"bufferView":10,"componentType":5126,"count":24,"max":[0.21875,0.75],"min":[0.15625,0.625],"type":"VEC2"},{"bufferView":11,"componentType":5123,"count":24,"max":[23],"min":[0],"type":"SCALAR"}],"materials":[{"pbrMetallicRoughness":{"metallicFactor":0,"roughnessFactor":1,"baseColorTexture":{"index":0}},"alphaMode":"MASK","alphaCutoff":0.05,"doubleSided":true}],"textures":[{"sampler":0,"source":0,"name":"uv_texture.png"}],"samplers":[{"magFilter":9728,"minFilter":9728,"wrapS":33071,"wrapT":33071}],"images":[{"mimeType":"image/png"}],"meshes":[{"primitives":[{"mode":4,"attributes":{"POSITION":0,"NORMAL":1,"TEXCOORD_0":2},"indices":3,"material":0}]},{"primitives":[{"mode":4,"attributes":{"POSITION":4,"NORMAL":5,"TEXCOORD_0":6},"indices":7,"material":0}]},{"primitives":[{"mode":4,"attributes":{"POSITION":8,"NORMAL":9,"TEXCOORD_0":10},"indices":11,"material":0}]}]}