{"asset":{"version":"2.0","generator":"Blockbench 4.11.1 glTF exporter"},"scenes":[{"nodes":[5],"name":"blockbench_export"}],"scene":0,"nodes":[{"translation":[0,-0.3125,0],"name":"lower leg","mesh":0},{"translation":[0,-0.109375,0],"name":"upper leg","mesh":1},{"translation":[0,-0.15625,0],"name":"knee","mesh":2},{"translation":[0,-0.46875,-0.046875],"name":"foot","mesh":3},{"translation":[0.09375,0.375,0],"name":"rightleg","children":[0,1,2,3]},{"children":[4]}],"bufferViews":[{"buffer":0,"byteOffset":0,"byteLength":672,"target":34962,"byteStride":12},{"buffer":0,"byteOffset":672,"byteLength":672,"target":34962,"byteStride":12},{"buffer":0,"byteOffset":1344,"byteLength":448,"target":34962,"byteStride":8},{"buffer":0,"byteOffset":1792,"byteLength":120,"target":34963},{"buffer":0,"byteOffset":1912,"byteLength":672,"target":34962,"byteStride":12},{"buffer":0,"byteOffset":2584,"byteLength":672,"target":34962,"byteStride":12},{"buffer":0,"byteOffset":3256,"byteLength":448,"target":34962,"byteStride":8},{"buffer":0,"byteOffset":3704,"byteLength":120,"target":34963},{"buffer":0,"byteOffset":3824,"byteLength":3072,"target":34962,"byteStride":12},{"buffer":0,"byteOffset":6896,"byteLength":3072,"target":34962,"byteStride":12},{"buffer":0,"byteOffset":9968,"byteLength":2048,"target":34962,"byteStride":8},{"buffer":0,"byteOffset":12016,"byteLength":768,"target":34963},{"buffer":0,"byteOffset":12784,"byteLength":288,"target":34962,"byteStride":12},{"buffer":0,"byteOffset":13072,"byteLength":288,"target":34962,"byteStride":12},{"buffer":0,"byteOffset":13360,"byteLength":192,"target":34962,"byteStride":8},{"buffer":0,"byteOffset":13552,"byteLength":72,"target":34963}],"buffers":[{"byteLength":13624,"uri":"data:application/octet-stream;base64,"}],"accessors":[{"bufferView":0,"componentType":5126,"count":56,"max":[0.046875,0.140625,0.046875],"min":[-0.046875,-0.015625,-0.046875],"type":"VEC3"},{"bufferView":1,"componentType":5126,"count":56,"max":[0.9805806875228882,1,0.9805806875228882],"min":[-0.9805806875228882,-1,-0.9805806875228882],"type":"VEC3"},{"bufferView":2,"componentType":5126,"count":56,"max":[0.0625,0.125],"min":[0,0],"type":"VEC2"},{"bufferView":3,"componentType":5123,"count":60,"max":[55],"min":[0],"type":"SCALAR"},{"bufferView":4,"componentType":5126,"count":56,"max":[0.046875,0.140625,0.046875],"min":[-0.046875,-0.015625,-0.046875],"type":"VEC3"},{"bufferView":5,"componentType":5126,"count":56,"max":[0.9805806875228882,1,0.9805806875228882],"min":[-0.9805806875228882,-1,-0.9805806875228882],"type":"VEC3"},{"bufferView":6,"componentType":5126,"count":56,"max":[0.0625,0.125],"min":[0,0],"type":"VEC2"},{"bufferView":7,"componentType":5123,"count":60,"max":[55],"min":[0],"type":"SCALAR"},{"bufferView":8,"componentType":5126,"count":256,"max":[0.046875,0.046875,0.046875],"min":[-0.046875,-0.046875,-0.046875],"type":"VEC3"},{"bufferView":9,"componentType":5126,"count":256,"max":[0.9492406845092773,0.8880271315574646,0.9492406845092773],"min":[-0.9492406845092773,-0.8880271315574646,-0.9492406845092773],"type":"VEC3"},{"bufferView":10,"componentType":5126,"count":256,"max":[0.12943750619888306,0.10243749618530273],"min":[0,0],"type":"VEC2"},{"bufferView":11,"componentType":5123,"count":384,"max":[255],"min":[0],"type":"SCALAR"},{"bufferView":12,"componentType":5126,"count":24,"max":[0.046875,0.15625,0.09375],"min":[-0.046875,0.09375,-0.0625],"type":"VEC3"},{"bufferView":13,"componentType":5126,"count":24,"max":[0.9805806875228882,0.9805806875228882,1],"min":[-0.9805806875228882,-1,-1],"type":"VEC3"},{"bufferView":14,"componentType":5126,"count":24,"max":[0.25,0.25],"min":[0,0],"type":"VEC2"},{"bufferView":15,"componentType":5123,"count":36,"max":[23],"min":[0],"type":"SCALAR"}],"materials":[{"pbrMetallicRoughness":{"metallicFactor":0,"roughnessFactor":1},"alphaMode":"MASK","alphaCutoff":0.05,"doubleSided":true}],"meshes":[{"primitives":[{"mode":4,"attributes":{"POSITION":0,"NORMAL":1,"TEXCOORD_0":2},"indices":3,"material":0}]},{"primitives":[{"mode":4,"attributes":{"POSITION":4,"NORMAL":5,"TEXCOORD_0":6},"indices":7,"material":0}]},{"primitives":[{"mode":4,"attributes":{"POSITION":8,"NORMAL":9,"TEXCOORD_0":10},"indices":11,"material":0}]},{"primitives":[{"mode":4,"attributes":{"POSITION":12,"NORMAL":13,"TEXCOORD_0":14},"indices":15,"material":0}]}]}