{"asset":{"version":"2.0","generator":"Blockbench 4.11.1 glTF exporter"},"scenes":[{"nodes":[6],"name":"blockbench_export"}],"scene":0,"nodes":[{"translation":[0.0625,-0.0625,0],"name":"shoulder","mesh":0},{"translation":[0.0625,-0.359375,0],"name":"lower arm","mesh":1},{"translation":[0.0625,-0.171875,0],"name":"upper arm","mesh":2},{"translation":[0.0625,-0.453125,0],"name":"hand","mesh":3},{"translation":[0.0625,-0.203125,0],"name":"elbow","mesh":4},{"translation":[0.1875,0.75,0],"name":"rightarm","children":[0,1,2,3,4]},{"children":[5]}],"bufferViews":[{"buffer":0,"byteOffset":0,"byteLength":288,"target":34962,"byteStride":12},{"buffer":0,"byteOffset":288,"byteLength":288,"target":34962,"byteStride":12},{"buffer":0,"byteOffset":576,"byteLength":192,"target":34962,"byteStride":8},{"buffer":0,"byteOffset":768,"byteLength":72,"target":34963},{"buffer":0,"byteOffset":840,"byteLength":672,"target":34962,"byteStride":12},{"buffer":0,"byteOffset":1512,"byteLength":672,"target":34962,"byteStride":12},{"buffer":0,"byteOffset":2184,"byteLength":448,"target":34962,"byteStride":8},{"buffer":0,"byteOffset":2632,"byteLength":120,"target":34963},{"buffer":0,"byteOffset":2752,"byteLength":672,"target":34962,"byteStride":12},{"buffer":0,"byteOffset":3424,"byteLength":672,"target":34962,"byteStride":12},{"buffer":0,"byteOffset":4096,"byteLength":448,"target":34962,"byteStride":8},{"buffer":0,"byteOffset":4544,"byteLength":120,"target":34963},{"buffer":0,"byteOffset":4664,"byteLength":1152,"target":34962,"byteStride":12},{"buffer":0,"byteOffset":5816,"byteLength":1152,"target":34962,"byteStride":12},{"buffer":0,"byteOffset":6968,"byteLength":768,"target":34962,"byteStride":8},{"buffer":0,"byteOffset":7736,"byteLength":264,"target":34963},{"buffer":0,"byteOffset":8000,"byteLength":3072,"target":34962,"byteStride":12},{"buffer":0,"byteOffset":11072,"byteLength":3072,"target":34962,"byteStride":12},{"buffer":0,"byteOffset":14144,"byteLength":2048,"target":34962,"byteStride":8},{"buffer":0,"byteOffset":16192,"byteLength":768,"target":34963}],"buffers":[{"byteLength":16960,"uri":"data:application/octet-stream;base64,"}],"accessors":[{"bufferView":0,"componentType":5126,"count":24,"max":[0.0625,0.125,0.0625],"min":[-0.0625,0,-0.0625],"type":"VEC3"},{"bufferView":1,"componentType":5126,"count":24,"max":[0.9701424837112427,0.9922778606414795,1],"min":[-1,-0.986393928527832,-1],"type":"VEC3"},{"bufferView":2,"componentType":5126,"count":24,"max":[0.125,0.125],"min":[0,0],"type":"VEC2"},{"bufferView":3,"componentType":5123,"count":36,"max":[23],"min":[0],"type":"SCALAR"},{"bufferView":4,"componentType":5126,"count":56,"max":[0.046875,0.125,0.046875],"min":[-0.046875,0,-0.046875],"type":"VEC3"},{"bufferView":5,"componentType":5126,"count":56,"max":[0.9701424837112427,1,0.9701424837112427],"min":[-0.9701424837112427,-1,-0.9701424837112427],"type":"VEC3"},{"bufferView":6,"componentType":5126,"count":56,"max":[0.0625,0.125],"min":[0,0],"type":"VEC2"},{"bufferView":7,"componentType":5123,"count":60,"max":[55],"min":[0],"type":"SCALAR"},{"bufferView":8,"componentType":5126,"count":56,"max":[0.046875,0.125,0.046875],"min":[-0.046875,0,-0.046875],"type":"VEC3"},{"bufferView":9,"componentType":5126,"count":56,"max":[0.9701424837112427,1,0.9701424837112427],"min":[-0.9701424837112427,-1,-0.9701424837112427],"type":"VEC3"},{"bufferView":10,"componentType":5126,"count":56,"max":[0.0625,0.125],"min":[0,0],"type":"VEC2"},{"bufferView":11,"componentType":5123,"count":60,"max":[55],"min":[0],"type":"SCALAR"},{"bufferView":12,"componentType":5126,"count":96,"max":[0.0625,0.125,0.0625],"min":[-0.0625,0,-0.0625],"type":"VEC3"},{"bufferView":13,"componentType":5126,"count":96,"max":[1,0.5773502588272095,0.5773502588272095],"min":[-0.5773502588272095,-0.5773502588272095,-0.5773502588272095],"type":"VEC3"},{"bufferView":14,"componentType":5126,"count":96,"max":[0.08838749676942825,0.07655000686645508],"min":[0,0],"type":"VEC2"},{"bufferView":15,"componentType":5123,"count":132,"max":[95],"min":[0],"type":"SCALAR"},{"bufferView":16,"componentType":5126,"count":256,"max":[0.046875,0.046875,0.046875],"min":[-0.046875,-0.046875,-0.046875],"type":"VEC3"},{"bufferView":17,"componentType":5126,"count":256,"max":[0.9492406845092773,0.8880271315574646,0.9492406845092773],"min":[-0.9492406845092773,-0.8880271315574646,-0.9492406845092773],"type":"VEC3"},{"bufferView":18,"componentType":5126,"count":256,"max":[0.12943750619888306,0.10243749618530273],"min":[0,0],"type":"VEC2"},{"bufferView":19,"componentType":5123,"count":384,"max":[255],"min":[0],"type":"SCALAR"}],"materials":[{"pbrMetallicRoughness":{"metallicFactor":0,"roughnessFactor":1},"alphaMode":"MASK","alphaCutoff":0.05,"doubleSided":true}],"meshes":[{"primitives":[{"mode":4,"attributes":{"POSITION":0,"NORMAL":1,"TEXCOORD_0":2},"indices":3,"material":0}]},{"primitives":[{"mode":4,"attributes":{"POSITION":4,"NORMAL":5,"TEXCOORD_0":6},"indices":7,"material":0}]},{"primitives":[{"mode":4,"attributes":{"POSITION":8,"NORMAL":9,"TEXCOORD_0":10},"indices":11,"material":0}]},{"primitives":[{"mode":4,"attributes":{"POSITION":12,"NORMAL":13,"TEXCOORD_0":14},"indices":15,"material":0}]},{"primitives":[{"mode":4,"attributes":{"POSITION":16,"NORMAL":17,"TEXCOORD_0":18},"indices":19,"material":0}]}]}