{"asset":{"version":"2.0","generator":"Blockbench 4.11.1 glTF exporter"},"scenes":[{"nodes":[4],"name":"blockbench_export"}],"scene":0,"nodes":[{"rotation":[0,-1,0,6.123233995736766e-17],"translation":[0.0625,-0.0625,0],"name":"shoulder","mesh":0},{"translation":[0.09375,-0.3125,0],"name":"arm","mesh":1},{"translation":[0.125,-0.546875,0.03125],"name":"hand","mesh":2},{"translation":[-0.4375,1.0625,0],"name":"leftarm","children":[0,1,2]},{"children":[3]}],"bufferViews":[{"buffer":0,"byteOffset":0,"byteLength":432,"target":34962,"byteStride":12},{"buffer":0,"byteOffset":432,"byteLength":432,"target":34962,"byteStride":12},{"buffer":0,"byteOffset":864,"byteLength":288,"target":34962,"byteStride":8},{"buffer":0,"byteOffset":1152,"byteLength":96,"target":34963},{"buffer":0,"byteOffset":1248,"byteLength":288,"target":34962,"byteStride":12},{"buffer":0,"byteOffset":1536,"byteLength":288,"target":34962,"byteStride":12},{"buffer":0,"byteOffset":1824,"byteLength":192,"target":34962,"byteStride":8},{"buffer":0,"byteOffset":2016,"byteLength":72,"target":34963},{"buffer":0,"byteOffset":2088,"byteLength":288,"target":34962,"byteStride":12},{"buffer":0,"byteOffset":2376,"byteLength":288,"target":34962,"byteStride":12},{"buffer":0,"byteOffset":2664,"byteLength":192,"target":34962,"byteStride":8},{"buffer":0,"byteOffset":2856,"byteLength":72,"target":34963}],"buffers":[{"byteLength":2928,"uri":"data:application/octet-stream;base64,"}],"accessors":[{"bufferView":0,"componentType":5126,"count":36,"max":[0.1875,0.40625,0.125],"min":[-0.125,-0.0625,-0.125],"type":"VEC3"},{"bufferView":1,"componentType":5126,"count":36,"max":[0.8320503234863281,0.374634325504303,1],"min":[-0.9830783009529114,-0.986393928527832,-1],"type":"VEC3"},{"bufferView":2,"componentType":5126,"count":36,"max":[0.703125,0.5631468892097473],"min":[0.453125,0.390625],"type":"VEC2"},{"bufferView":3,"componentType":5123,"count":48,"max":[35],"min":[0],"type":"SCALAR"},{"bufferView":4,"componentType":5126,"count":24,"max":[0.0625,0.390625,0.0625],"min":[-0.0625,-0.109375,-0.0625],"type":"VEC3"},{"bufferView":5,"componentType":5126,"count":24,"max":[1,1,1],"min":[-1,-1,-1],"type":"VEC3"},{"bufferView":6,"componentType":5126,"count":24,"max":[0.828125,0.546875],"min":[0.703125,0.359375],"type":"VEC2"},{"bufferView":7,"componentType":5123,"count":36,"max":[23],"min":[0],"type":"SCALAR"},{"bufferView":8,"componentType":5126,"count":24,"max":[0.0625,0.125,0.015625],"min":[-0.125,-0.0625,-0.078125],"type":"VEC3"},{"bufferView":9,"componentType":5126,"count":24,"max":[0.986393928527832,1,0.9965457320213318],"min":[-0.986393928527832,-1,-0.9965457320213318],"type":"VEC3"},{"bufferView":10,"componentType":5126,"count":24,"max":[0.90625,0.515625],"min":[0.828125,0.390625],"type":"VEC2"},{"bufferView":11,"componentType":5123,"count":36,"max":[23],"min":[0],"type":"SCALAR"}],"materials":[{"pbrMetallicRoughness":{"metallicFactor":0,"roughnessFactor":1,"baseColorTexture":{"index":0}},"alphaMode":"MASK","alphaCutoff":0.05,"doubleSided":true}],"textures":[{"sampler":0,"source":0,"name":"new_uv_texture.png"}],"samplers":[{"magFilter":9728,"minFilter":9728,"wrapS":33071,"wrapT":33071}],"images":[{"mimeType":"image/png"}],"meshes":[{"primitives":[{"mode":4,"attributes":{"POSITION":0,"NORMAL":1,"TEXCOORD_0":2},"indices":3,"material":0}]},{"primitives":[{"mode":4,"attributes":{"POSITION":4,"NORMAL":5,"TEXCOORD_0":6},"indices":7,"material":0}]},{"primitives":[{"mode":4,"attributes":{"POSITION":8,"NORMAL":9,"TEXCOORD_0":10},"indices":11,"material":0}]}]}