{"asset":{"version":"2.0","generator":"Blockbench 4.11.1 glTF exporter"},"scenes":[{"nodes":[3],"name":"blockbench_export"}],"scene":0,"nodes":[{"rotation":[0,0,-0.7071067811865475,0.7071067811865476],"translation":[0.09375,1.0312500000000013,-2.2551405187698492e-17],"name":"jet","mesh":0},{"translation":[-0.0625,-0.9375,0],"name":"backpack","children":[0]},{"rotation":[0,-0.7071067811865475,0,0.7071067811865476],"translation":[0.0625,0.9375,0],"name":"all","children":[1]},{"children":[2]}],"bufferViews":[{"buffer":0,"byteOffset":0,"byteLength":960,"target":34962,"byteStride":12},{"buffer":0,"byteOffset":960,"byteLength":960,"target":34962,"byteStride":12},{"buffer":0,"byteOffset":1920,"byteLength":640,"target":34962,"byteStride":8},{"buffer":0,"byteOffset":2560,"byteLength":192,"target":34963}],"buffers":[{"byteLength":2752,"uri":"data:application/octet-stream;base64,"}],"accessors":[{"bufferView":0,"componentType":5126,"count":80,"max":[0.1875,0.1875,0.1875],"min":[-0.125,-1.3877787807814457e-17,-0.125],"type":"VEC3"},{"bufferView":1,"componentType":5126,"count":80,"max":[1,0.9486833214759827,1],"min":[-1,-1,-1],"type":"VEC3"},{"bufferView":2,"componentType":5126,"count":80,"max":[0.984375,0.34375],"min":[0.71875,0.21875],"type":"VEC2"},{"bufferView":3,"componentType":5123,"count":96,"max":[79],"min":[0],"type":"SCALAR"}],"materials":[{"pbrMetallicRoughness":{"metallicFactor":0,"roughnessFactor":1,"baseColorTexture":{"index":0}},"alphaMode":"MASK","alphaCutoff":0.05,"doubleSided":true}],"textures":[{"sampler":0,"source":0,"name":"new_uv_texture.png"}],"samplers":[{"magFilter":9728,"minFilter":9728,"wrapS":33071,"wrapT":33071}],"images":[{"mimeType":"image/png"}],"meshes":[{"primitives":[{"mode":4,"attributes":{"POSITION":0,"NORMAL":1,"TEXCOORD_0":2},"indices":3,"material":0}]}]}