{"asset":{"version":"2.0","generator":"Blockbench 4.11.1 glTF exporter"},"scenes":[{"nodes":[5],"name":"blockbench_export"}],"scene":0,"nodes":[{"translation":[0.03125,0.8750000000000013,-0.25],"name":"shoulder","mesh":0},{"rotation":[0,0.7071067811865475,0,0.7071067811865476],"translation":[0.03125,0.4375000000000012,-0.25],"name":"hand","mesh":1},{"translation":[0,0.125,-0.03125],"name":"cuboid","mesh":2},{"translation":[0,-0.8125,0],"name":"rightarm","children":[0,1,2]},{"rotation":[0,-0.7071067811865475,0,0.7071067811865476],"translation":[0.0625,0.9375,0],"name":"all","children":[3]},{"children":[4]}],"bufferViews":[{"buffer":0,"byteOffset":0,"byteLength":288,"target":34962,"byteStride":12},{"buffer":0,"byteOffset":288,"byteLength":288,"target":34962,"byteStride":12},{"buffer":0,"byteOffset":576,"byteLength":192,"target":34962,"byteStride":8},{"buffer":0,"byteOffset":768,"byteLength":72,"target":34963},{"buffer":0,"byteOffset":840,"byteLength":288,"target":34962,"byteStride":12},{"buffer":0,"byteOffset":1128,"byteLength":288,"target":34962,"byteStride":12},{"buffer":0,"byteOffset":1416,"byteLength":192,"target":34962,"byteStride":8},{"buffer":0,"byteOffset":1608,"byteLength":72,"target":34963},{"buffer":0,"byteOffset":1680,"byteLength":240,"target":34962,"byteStride":12},{"buffer":0,"byteOffset":1920,"byteLength":240,"target":34962,"byteStride":12},{"buffer":0,"byteOffset":2160,"byteLength":160,"target":34962,"byteStride":8},{"buffer":0,"byteOffset":2320,"byteLength":60,"target":34963}],"buffers":[{"byteLength":2380,"uri":"data:application/octet-stream;base64,"}],"accessors":[{"bufferView":0,"componentType":5126,"count":24,"max":[0.125,0.28125,0.125],"min":[-0.125,-0.0625,-0.20000000298023224],"type":"VEC3"},{"bufferView":1,"componentType":5126,"count":24,"max":[0.9629172682762146,0.9725897908210754,0.9696934819221497],"min":[-1,-0.9486833214759827,-0.9721755981445312],"type":"VEC3"},{"bufferView":2,"componentType":5126,"count":24,"max":[0.25,0.5625],"min":[0,0.390625],"type":"VEC2"},{"bufferView":3,"componentType":5123,"count":36,"max":[23],"min":[0],"type":"SCALAR"},{"bufferView":4,"componentType":5126,"count":24,"max":[0.125,0.125,0.015625],"min":[-0.0625,-0.0625,-0.078125],"type":"VEC3"},{"bufferView":5,"componentType":5126,"count":24,"max":[0.986393928527832,1,0.9965457320213318],"min":[-0.986393928527832,-1,-0.9965457320213318],"type":"VEC3"},{"bufferView":6,"componentType":5126,"count":24,"max":[0.453125,0.515625],"min":[0.375,0.390625],"type":"VEC2"},{"bufferView":7,"componentType":5123,"count":36,"max":[23],"min":[0],"type":"SCALAR"},{"bufferView":8,"componentType":5126,"count":20,"max":[0.0625,0.75,-0.1875],"min":[-0.0625,0.4375,-0.3125],"type":"VEC3"},{"bufferView":9,"componentType":5126,"count":20,"max":[1,0,1],"min":[-1,-1,-1],"type":"VEC3"},{"bufferView":10,"componentType":5126,"count":20,"max":[0.375,0.546875],"min":[0.25,0.40625],"type":"VEC2"},{"bufferView":11,"componentType":5123,"count":30,"max":[19],"min":[0],"type":"SCALAR"}],"materials":[{"pbrMetallicRoughness":{"metallicFactor":0,"roughnessFactor":1,"baseColorTexture":{"index":0}},"alphaMode":"MASK","alphaCutoff":0.05,"doubleSided":true}],"textures":[{"sampler":0,"source":0,"name":"new_uv_texture.png"}],"samplers":[{"magFilter":9728,"minFilter":9728,"wrapS":33071,"wrapT":33071}],"images":[{"mimeType":"image/png"}],"meshes":[{"primitives":[{"mode":4,"attributes":{"POSITION":0,"NORMAL":1,"TEXCOORD_0":2},"indices":3,"material":0}]},{"primitives":[{"mode":4,"attributes":{"POSITION":4,"NORMAL":5,"TEXCOORD_0":6},"indices":7,"material":0}]},{"primitives":[{"mode":4,"attributes":{"POSITION":8,"NORMAL":9,"TEXCOORD_0":10},"indices":11,"material":0}]}]}