{"asset":{"version":"2.0","generator":"Blockbench 4.11.1 glTF exporter"},"scenes":[{"nodes":[4],"name":"blockbench_export"}],"scene":0,"nodes":[{"translation":[0.03125,-0.34374999999999833,0],"name":"main","mesh":0},{"translation":[0,-0.3749999999999988,0],"name":"waist","mesh":1},{"name":"torso","children":[0,1]},{"rotation":[0,-0.7071067811865475,0,0.7071067811865476],"translation":[0.0625,0.9375,0],"name":"all","children":[2]},{"children":[3]}],"bufferViews":[{"buffer":0,"byteOffset":0,"byteLength":984,"target":34962,"byteStride":12},{"buffer":0,"byteOffset":984,"byteLength":984,"target":34962,"byteStride":12},{"buffer":0,"byteOffset":1968,"byteLength":656,"target":34962,"byteStride":8},{"buffer":0,"byteOffset":2624,"byteLength":228,"target":34963},{"buffer":0,"byteOffset":2852,"byteLength":720,"target":34962,"byteStride":12},{"buffer":0,"byteOffset":3572,"byteLength":720,"target":34962,"byteStride":12},{"buffer":0,"byteOffset":4292,"byteLength":480,"target":34962,"byteStride":8},{"buffer":0,"byteOffset":4772,"byteLength":144,"target":34963}],"buffers":[{"byteLength":4916,"uri":"data:application/octet-stream;base64,"}],"accessors":[{"bufferView":0,"componentType":5126,"count":82,"max":[0.07500000298023224,0.5625,0.25],"min":[-0.21875,0.1875,-0.1875],"type":"VEC3"},{"bufferView":1,"componentType":5126,"count":82,"max":[1,1,0.985030472278595],"min":[-0.9486833214759827,-0.7926239967346191,-0.985030472278595],"type":"VEC3"},{"bufferView":2,"componentType":5126,"count":82,"max":[0.640625,0.140625],"min":[0.28125,0],"type":"VEC2"},{"bufferView":3,"componentType":5123,"count":114,"max":[81],"min":[0],"type":"SCALAR"},{"bufferView":4,"componentType":5126,"count":60,"max":[0.17558756470680237,0.265625,0.26249998807907104],"min":[-0.12871256470680237,-0.0625,-0.20000000298023224],"type":"VEC3"},{"bufferView":5,"componentType":5126,"count":60,"max":[0.9180384874343872,1,0.9510340690612793],"min":[-0.9856870770454407,-0.9653633832931519,-0.9578262567520142],"type":"VEC3"},{"bufferView":6,"componentType":5126,"count":60,"max":[1,0.21875],"min":[0.671875,0],"type":"VEC2"},{"bufferView":7,"componentType":5123,"count":72,"max":[59],"min":[0],"type":"SCALAR"}],"materials":[{"pbrMetallicRoughness":{"metallicFactor":0,"roughnessFactor":1,"baseColorTexture":{"index":0}},"alphaMode":"MASK","alphaCutoff":0.05,"doubleSided":true}],"textures":[{"sampler":0,"source":0,"name":"new_uv_texture.png"}],"samplers":[{"magFilter":9728,"minFilter":9728,"wrapS":33071,"wrapT":33071}],"images":[{"mimeType":"image/png"}],"meshes":[{"primitives":[{"mode":4,"attributes":{"POSITION":0,"NORMAL":1,"TEXCOORD_0":2},"indices":3,"material":0}]},{"primitives":[{"mode":4,"attributes":{"POSITION":4,"NORMAL":5,"TEXCOORD_0":6},"indices":7,"material":0}]}]}