{"asset":{"version":"2.0","generator":"Blockbench 4.11.1 glTF exporter"},"scenes":[{"nodes":[3],"name":"blockbench_export"}],"scene":0,"nodes":[{"translation":[0,0.328125,-0.015625],"name":"chest","mesh":0},{"translation":[-0.0625,0.03125,0],"name":"waist","mesh":1},{"translation":[0,0.59375,0],"name":"torso","children":[0,1]},{"children":[2]}],"bufferViews":[{"buffer":0,"byteOffset":0,"byteLength":1104,"target":34962,"byteStride":12},{"buffer":0,"byteOffset":1104,"byteLength":1104,"target":34962,"byteStride":12},{"buffer":0,"byteOffset":2208,"byteLength":736,"target":34962,"byteStride":8},{"buffer":0,"byteOffset":2944,"byteLength":252,"target":34963},{"buffer":0,"byteOffset":3196,"byteLength":480,"target":34962,"byteStride":12},{"buffer":0,"byteOffset":3676,"byteLength":480,"target":34962,"byteStride":12},{"buffer":0,"byteOffset":4156,"byteLength":320,"target":34962,"byteStride":8},{"buffer":0,"byteOffset":4476,"byteLength":120,"target":34963}],"buffers":[{"byteLength":4596,"uri":"data:application/octet-stream;base64,"}],"accessors":[{"bufferView":0,"componentType":5126,"count":92,"max":[0.28125,0.2109375,0.2213541716337204],"min":[-0.28125,-0.1953125,-0.2473958283662796],"type":"VEC3"},{"bufferView":1,"componentType":5126,"count":92,"max":[0.9805806875228882,1,1],"min":[-0.9805806875228882,-0.6585046052932739,-0.9377487897872925],"type":"VEC3"},{"bufferView":2,"componentType":5126,"count":92,"max":[0.65625,0.15625],"min":[0.28125,0],"type":"VEC2"},{"bufferView":3,"componentType":5123,"count":126,"max":[91],"min":[0],"type":"SCALAR"},{"bufferView":4,"componentType":5126,"count":40,"max":[0.296875,0.109375,0.15625],"min":[-0.171875,-0.125,-0.15625],"type":"VEC3"},{"bufferView":5,"componentType":5126,"count":40,"max":[0.9647638201713562,1,0.9638580679893494],"min":[-0.9647638201713562,-0.9486833214759827,-0.9662349224090576],"type":"VEC3"},{"bufferView":6,"componentType":5126,"count":40,"max":[1,0.21875],"min":[0.65625,0],"type":"VEC2"},{"bufferView":7,"componentType":5123,"count":60,"max":[39],"min":[0],"type":"SCALAR"}],"materials":[{"pbrMetallicRoughness":{"metallicFactor":0,"roughnessFactor":1,"baseColorTexture":{"index":0}},"alphaMode":"MASK","alphaCutoff":0.05,"doubleSided":true}],"textures":[{"sampler":0,"source":0,"name":"new_uv_texture"}],"samplers":[{"magFilter":9728,"minFilter":9728,"wrapS":33071,"wrapT":33071}],"images":[{"mimeType":"image/png"}],"meshes":[{"primitives":[{"mode":4,"attributes":{"POSITION":0,"NORMAL":1,"TEXCOORD_0":2},"indices":3,"material":0}]},{"primitives":[{"mode":4,"attributes":{"POSITION":4,"NORMAL":5,"TEXCOORD_0":6},"indices":7,"material":0}]}]}